<?xml version="1.0" encoding="UTF-8" standalone="no"?>
<svg
   width="100%"
   height="100%"
   viewBox="0 0 10584 1835"
   xml:space="preserve"
   style="fill-rule: evenodd; clip-rule: evenodd; stroke-linejoin: round; stroke-miterlimit: 2;"
   version="1.1"
   id="svg8"
   sodipodi:docname="logo.svg"
   inkscape:version="1.2.1 (9c6d41e410, 2022-07-14)"
   xmlns:inkscape="http://www.inkscape.org/namespaces/inkscape"
   xmlns:sodipodi="http://sodipodi.sourceforge.net/DTD/sodipodi-0.dtd"
   xmlns="http://www.w3.org/2000/svg"
   xmlns:svg="http://www.w3.org/2000/svg"><defs
   id="defs12"><rect
     x="8672.2145"
     y="25.248092"
     width="1869.7924"
     height="782.39355"
     id="rect284" /><rect
     x="8733.8198"
     y="72.714504"
     width="1648.1954"
     height="533.23969"
     id="rect226" /></defs><sodipodi:namedview
   id="namedview10"
   pagecolor="#ffffff"
   bordercolor="#666666"
   borderopacity="1.0"
   inkscape:showpageshadow="2"
   inkscape:pageopacity="0.0"
   inkscape:pagecheckerboard="0"
   inkscape:deskcolor="#d1d1d1"
   showgrid="false"
   inkscape:zoom="0.08751983"
   inkscape:cx="4821.7644"
   inkscape:cy="1588.2115"
   inkscape:window-width="1920"
   inkscape:window-height="991"
   inkscape:window-x="-9"
   inkscape:window-y="-9"
   inkscape:window-maximized="1"
   inkscape:current-layer="layer2" />
    <g
   inkscape:groupmode="layer"
   id="layer2"
   inkscape:label="Layer 2"><rect
     style="fill:#1c1e21;stroke:#000000;stroke-width:4;stroke-linecap:round;stroke-linejoin:round;fill-opacity:1"
     id="rect123"
     width="11231.74"
     height="3050.7373"
     x="-262.79758"
     y="-331.35349" /></g><g
   inkscape:groupmode="layer"
   id="layer1"
   inkscape:label="Layer 1"><path
     fill="#ffffff"
     d="M8596.33,535.92L4431.78,535.92L4431.78,1834.44L10490.7,1834.44L10490.7,676.14L8596.33,676.14L8596.33,535.92ZM0,535.92L4257.14,535.92L4257.14,1834.44L0,1834.44L0,535.92ZM427.69,945.08L570.27,945.08C635.29,945.08 684.34,974.73 684.34,1052.3C684.34,1126.44 637.58,1153.82 570.27,1153.82L427.69,1153.82L427.69,945.08ZM215.52,1589.56L427.69,1589.56L427.69,1318.08L602.21,1318.08C781.3,1318.08 896.51,1239.37 896.51,1037.47C896.51,844.7 753.92,775.11 602.21,775.11L215.52,775.11L215.52,1589.56ZM1173.13,945.08L1341.95,945.08C1401.27,945.08 1449.17,972.45 1449.17,1032.91C1449.17,1095.65 1414.95,1128.73 1351.08,1128.73L1173.13,1128.73L1173.13,945.08ZM960.96,1589.56L1173.13,1589.56L1173.13,1292.98L1333.97,1292.98C1434.35,1292.98 1446.89,1377.39 1452.6,1459.52C1456.02,1483.48 1458.3,1561.04 1476.55,1589.56L1686.44,1589.56C1657.92,1557.62 1655.64,1441.27 1652.22,1405.91C1646.51,1328.34 1619.14,1232.53 1533.58,1210.85L1533.58,1208.57C1620.28,1175.49 1661.34,1092.22 1661.34,1004.39C1661.34,840.13 1518.76,775.11 1376.17,775.11L960.96,775.11L960.96,1589.56ZM2452.4,775.11L2240.24,775.11L2240.24,1265.61C2240.24,1370.55 2202.59,1424.16 2097.65,1424.16C1992.71,1424.16 1955.07,1370.55 1955.07,1265.61L1955.07,775.11L1742.9,775.11L1742.9,1253.06C1742.9,1489.18 1851.26,1606.67 2097.65,1606.67C2344.04,1606.67 2452.4,1489.18 2452.4,1253.06L2452.4,775.11ZM2511.15,1315.8C2511.15,1524.54 2678.83,1606.67 2864.76,1606.67C3043.84,1606.67 3219.51,1540.51 3219.51,1334.05C3219.51,1186.9 3100.88,1132.15 2983.39,1099.07C2864.76,1065.99 2747.27,1055.72 2747.27,991.84C2747.27,938.23 2804.3,922.26 2849.93,922.26C2913.81,922.26 2984.53,947.36 2981.11,1020.36L3193.27,1020.36C3193.27,837.85 3027.87,758 2867.04,758C2714.19,758 2535.1,827.59 2535.1,1005.53C2535.1,1156.1 2658.29,1207.43 2773.5,1240.51C2890.99,1273.59 3007.34,1286.14 3007.34,1359.14C3007.34,1419.6 2941.18,1442.41 2877.3,1442.41C2786.05,1442.41 2727.87,1411.61 2723.31,1315.8L2511.15,1315.8ZM3199.54,1589.56L3417.41,1589.56L3468.74,1443.55L3752.77,1443.55L3802.96,1589.56L4024.26,1589.56L3719.69,775.11L3504.11,775.11L3199.54,1589.56ZM3610.19,1000.97L3612.47,1000.97L3702.58,1286.14L3517.79,1286.14L3610.19,1000.97ZM5450.42,1065.99C5444.72,869.79 5255.37,758 5078.56,758C4831.03,758 4672.48,946.22 4672.48,1182.34C4672.48,1418.46 4831.03,1606.67 5078.56,1606.67C5285.02,1606.67 5437.87,1484.62 5450.42,1273.59L5238.26,1273.59C5230.27,1368.27 5174.38,1424.16 5074,1424.16C4937.12,1424.16 4884.65,1304.39 4884.65,1182.34C4884.65,1060.28 4937.12,940.51 5074,940.51C5164.11,940.51 5225.71,983.86 5238.26,1065.99L5450.42,1065.99ZM5708.79,1182.34C5708.79,1060.28 5761.26,940.51 5898.14,940.51C6035.03,940.51 6087.5,1060.28 6087.5,1182.34C6087.5,1304.39 6035.03,1424.16 5898.14,1424.16C5761.26,1424.16 5708.79,1304.39 5708.79,1182.34ZM5496.63,1182.34C5496.63,1418.46 5642.63,1606.67 5898.14,1606.67C6153.66,1606.67 6299.66,1418.46 6299.66,1182.34C6299.66,946.22 6153.66,758 5898.14,758C5642.63,758 5496.63,946.22 5496.63,1182.34ZM6376.66,1589.56L6576.28,1589.56L6576.28,1081.96L6578.56,1081.96L6861.45,1589.56L7079.32,1589.56L7079.32,775.11L6879.7,775.11L6879.7,1277.01L6877.42,1277.01L6594.53,775.11L6376.66,775.11L6376.66,1589.56ZM7185.97,1589.56L7385.59,1589.56L7385.59,1081.96L7387.87,1081.96L7670.76,1589.56L7888.63,1589.56L7888.63,775.11L7689.01,775.11L7689.01,1277.01L7686.73,1277.01L7403.84,775.11L7185.97,775.11L7185.97,1589.56ZM7997.56,1589.56L8658.02,1589.56L8658.02,1407.05L8209.73,1407.05L8209.73,1251.92L8608.97,1251.92L8608.97,1087.66L8209.73,1087.66L8209.73,945.08L8646.61,945.08L8646.61,775.11L7997.56,775.11L7997.56,1589.56ZM9495.85,1065.99C9490.15,869.79 9300.8,758 9123.99,758C8876.46,758 8717.91,946.22 8717.91,1182.34C8717.91,1418.46 8876.46,1606.67 9123.99,1606.67C9330.45,1606.67 9483.3,1484.62 9495.85,1273.59L9283.69,1273.59C9275.7,1368.27 9219.81,1424.16 9119.43,1424.16C8982.55,1424.16 8930.08,1304.39 8930.08,1182.34C8930.08,1060.28 8982.55,940.51 9119.43,940.51C9209.54,940.51 9271.14,983.86 9283.69,1065.99L9495.85,1065.99ZM10218.5,775.11L9520.38,775.11L9520.38,957.62L9763.35,957.62L9763.35,1589.56L9975.51,1589.56L9975.51,957.62L10218.5,957.62L10218.5,775.11Z"
     id="path2"
     style="fill-rule:evenodd;clip-rule:evenodd;stroke-linejoin:round;stroke-miterlimit:2" /><rect
     fill="var(--color-primary)"
     x="8596.33"
     y="0"
     width="1986.97"
     height="676.14"
     style="fill-rule:evenodd;clip-rule:evenodd;stroke-linejoin:round;stroke-miterlimit:2;fill:rgb(250, 104, 49)"
     id="rect4" /><text
     xml:space="preserve"
     id="text282"
     style="fill-rule:evenodd;clip-rule:evenodd;stroke-linejoin:round;stroke-miterlimit:2;font-style:normal;font-weight:normal;font-size:564px;line-height:1.25;font-family:sans-serif;white-space:pre;shape-inside:url(#rect284);shape-padding:6.05954;fill:#1c1e21;fill-opacity:1;stroke:none"
     transform="translate(105.03206,-10.099237)"
     inkscape:label="text282"><tspan
       x="8678.2734"
       y="559.77659"
       id="tspan869"><tspan
         style="font-weight:900;font-family:'Atlas Grotesk';-inkscape-font-specification:'Atlas Grotesk, Heavy'"
         id="tspan867">RSTP</tspan></tspan></text></g></svg>
